<svg xmlns="http://www.w3.org/2000/svg" width="96" height="96" viewBox="0 0 100 100" fill="none"><rect width="100" height="100" rx="0" fill="#00080A"/><g transform="translate(16,16) scale(0.56667)"><path fill-rule="evenodd" clip-rule="evenodd" d="M60.007 119.885C92.8914 119.885 119.507 93.2326 119.507 60.3848H119.544C119.544 27.537 92.9281 0.884766 60.0436 0.884766C27.1591 0.884766 0.54361 27.537 0.54361 60.3848C0.54361 93.2326 27.1225 119.885 60.007 119.885ZM81.4902 22.478L72.6183 49.9001L72.5817 49.9368L99.1606 41.3215C107.079 57.5621 104.293 77.7254 90.802 91.2165C73.7915 108.227 46.1861 108.227 29.1756 91.2165C12.1652 74.206 12.1652 46.6007 29.1756 29.5902C43.3633 15.4026 64.8463 13.0563 81.4902 22.478Z" fill="#FFFFFF"/></g></svg>
